<svg xmlns="http://www.w3.org/2000/svg" width="15" height="15" fill="none"><rect id="backgroundrect" width="100%" height="100%" x="0" y="0" fill="none" stroke="none"/>

<defs>
<clipPath id="clip0_267_894">
<rect width="15" height="15" fill="white" id="svg_1"/>
</clipPath>
</defs>
<g class="currentLayer" style=""><title>Layer 1</title><g clip-path="url(#clip0_267_894)" id="svg_2">
<path d="M7.50061 1.89671C9.26233 0.314993 11.9848 0.367492 13.682 2.06771C15.3785 3.76868 15.437 6.47763 13.859 8.24459L7.49911 14.6135L1.14073 8.24459C-0.437237 6.47763 -0.377988 3.76418 1.31773 2.06771C3.01645 0.369742 5.73365 0.312743 7.50061 1.89671ZM12.62 3.12744C11.495 2.00096 9.68007 1.95521 8.50259 3.01269L7.50136 3.91118L6.49938 3.01344C5.31816 1.95446 3.50694 2.00096 2.37896 3.12894C1.26148 4.24642 1.20523 6.03514 2.23496 7.21711L7.49986 12.4903L12.7648 7.21786C13.7952 6.03514 13.739 4.24867 12.62 3.12744Z" fill="white" id="svg_3"/>
</g><polyline fill="#ffffff" stroke="#ffffff" stroke-width="2" stroke-linejoin="round" stroke-dashoffset="" fill-rule="nonzero" marker-start="" marker-mid="" marker-end="" id="svg_4" points="7.129174870991533,12.357144082643085 7.129174870991533,12.275511429581865 7.129174870991533,12.193878776520638 7.129174870991533,12.11224612345941 7.210807524052761,12.11224612345941 7.292440177113988,12.030613470398192 7.455705483236436,11.867348164275743 7.618970789358882,11.867348164275743 7.70060344242011,11.704082858153289 7.863868748542559,11.540817552030843 7.945501401603778,11.377552245908394 8.108766707726232,11.295919592847167 8.27203201384868,11.13265428672472 8.353664666909907,11.051021633663499 8.516929973032354,10.96938898060227 8.598562626093575,10.806123674479824 8.761827932216029,10.724491021418597 8.84346058527725,10.56122571529615 8.925093238338476,10.47959306223492 9.006725891399697,10.397960409173699 9.169991197522151,10.234695103051251 9.251623850583371,10.234695103051251 9.333256503644598,10.0714297969288 9.496521809767046,9.989797143867577 9.578154462828273,9.908164490806353 9.659787115889493,9.744899184683906 9.74141976895072,9.744899184683906 9.823052422011948,9.663266531622678 9.904685075073168,9.581633878561455 9.986317728134395,9.418368572439007 10.149583034256842,9.418368572439007 10.149583034256842,9.418368572439007 10.23121568731807,9.33673591937778 10.394480993440517,9.173470613255333 10.394480993440517,9.173470613255333 10.476113646501737,9.091837960194109 10.557746299562965,9.010205307132882 10.639378952624192,8.928572654071658 10.72101160568541,8.928572654071658 10.80264425874664,8.76530734794921 10.88427691180786,8.76530734794921 10.965909564869087,8.683674694887987 11.047542217930314,8.60204204182676 11.129174870991534,8.60204204182676 11.129174870991534,8.520409388765536 11.21080752405276,8.520409388765536 11.292440177113988,8.438776735704312 11.374072830175209,8.438776735704312 11.374072830175209,8.357144082643089 11.455705483236436,8.275511429581861 11.455705483236436,8.193878776520638 11.618970789358883,8.112246123459414 11.700603442420109,8.03061347039819 11.782236095481332,7.86734816427574 11.863868748542558,7.785715511214516 11.945501401603778,7.785715511214516 12.027134054665005,7.622450205092069 12.027134054665005,7.540817552030841 12.108766707726232,7.377552245908395 12.190399360787453,7.29591959284717 12.190399360787453,7.214286939785946 12.272032013848682,7.13265428672472 12.3536646669099,7.13265428672472 12.3536646669099,6.969388980602272 12.3536646669099,6.969388980602272 12.435297319971127,6.969388980602272 12.516929973032354,6.887756327541048 12.516929973032354,6.806123674479821 12.516929973032354,6.724491021418597 12.598562626093575,6.724491021418597 12.598562626093575,6.642858368357373 12.680195279154802,6.642858368357373 12.680195279154802,6.56122571529615 12.680195279154802,6.479593062234926 12.84346058527725,6.479593062234926 12.84346058527725,6.397960409173699 12.84346058527725,6.316327756112475 12.84346058527725,6.234695103051251 12.925093238338476,6.234695103051251 12.925093238338476,6.153062449990028 12.925093238338476,6.153062449990028 13.006725891399697,6.153062449990028 13.006725891399697,6.0714297969288005 13.006725891399697,6.153062449990028 13.006725891399697,6.153062449990028 12.84346058527725,6.397960409173699 12.680195279154802,6.56122571529615 12.435297319971127,6.887756327541048 12.272032013848682,7.13265428672472 12.027134054665005,7.29591959284717 12.027134054665005,7.540817552030841 11.863868748542558,7.785715511214516 11.618970789358883,7.86734816427574 11.455705483236436,8.03061347039819 11.292440177113988,8.357144082643089 11.129174870991534,8.60204204182676 11.047542217930314,8.683674694887987 10.80264425874664,8.846940001010434 10.72101160568541,9.010205307132882 10.557746299562965,9.091837960194109 10.394480993440517,9.255103266316556 10.31284834037929,9.33673591937778 10.23121568731807,9.418368572439007 10.149583034256842,9.418368572439007 10.067950381195615,9.581633878561455 9.986317728134395,9.581633878561455 9.904685075073168,9.663266531622678 9.823052422011948,9.744899184683906 9.659787115889493,9.82653183774513 9.659787115889493,9.908164490806353 9.578154462828273,9.989797143867577 9.578154462828273,10.0714297969288 9.414889156705819,10.153062449990028 9.333256503644598,10.234695103051251 9.251623850583371,10.234695103051251 9.088358544460924,10.316327756112475 8.925093238338476,10.47959306223492 8.84346058527725,10.56122571529615 8.761827932216029,10.64285836835737 8.680195279154802,10.724491021418597 8.598562626093575,10.806123674479824 8.516929973032354,10.887756327541044 8.435297319971127,10.887756327541044 8.435297319971127,11.051021633663499 8.27203201384868,11.051021633663499 8.27203201384868,11.051021633663499 8.190399360787453,11.13265428672472 8.108766707726232,11.13265428672472 8.108766707726232,11.214286939785946 8.108766707726232,11.295919592847167 8.027134054665005,11.377552245908394 8.027134054665005,11.45918489896962 7.945501401603778,11.540817552030843 7.945501401603778,11.540817552030843 7.945501401603778,11.704082858153289 7.863868748542559,11.785715511214516 7.7822360954813306,11.785715511214516 7.7822360954813306,11.867348164275743 7.7822360954813306,11.948980817336961 7.7822360954813306,12.030613470398192 7.70060344242011,12.11224612345941 7.70060344242011,12.193878776520638 7.70060344242011,12.275511429581865 7.70060344242011,12.357144082643085 7.70060344242011,12.43877673570431 7.618970789358882,12.43877673570431 7.537338136297656,12.520409388765541 7.537338136297656,12.683674694887987 7.537338136297656,12.683674694887987 7.455705483236436,12.683674694887987 7.374072830175209,12.683674694887987 7.374072830175209,12.765307347949207 7.374072830175209,12.846940001010434 7.292440177113988,12.846940001010434 7.210807524052761,12.846940001010434 7.210807524052761,12.765307347949207 7.210807524052761,12.683674694887987 7.210807524052761,12.60204204182676 7.210807524052761,12.357144082643085 7.210807524052761,12.11224612345941 7.210807524052761,11.867348164275743 7.210807524052761,11.867348164275743 7.129174870991533,11.704082858153289 7.129174870991533,11.540817552030843 7.129174870991533,11.45918489896962 7.047542217930314,11.377552245908394 7.047542217930314,11.295919592847167 6.9659095648690865,11.13265428672472 6.884276911807866,11.051021633663499 6.884276911807866,11.051021633663499 6.884276911807866,10.96938898060227 6.802644258746639,10.96938898060227 6.721011605685412,10.96938898060227 6.639378952624192,10.96938898060227 6.5577462995629645,10.96938898060227 6.394480993440517,10.96938898060227 6.31284834037929,10.96938898060227 6.23121568731807,11.051021633663499 6.1495830342568425,11.051021633663499 6.067950381195615,11.051021633663499 5.986317728134395,10.96938898060227 5.904685075073168,10.806123674479824 5.904685075073168,10.64285836835737 5.823052422011948,10.56122571529615 5.7414197689507205,10.47959306223492 5.659787115889493,10.397960409173699 5.578154462828273,10.234695103051251 5.578154462828273,10.234695103051251 5.496521809767046,10.153062449990028 5.496521809767046,10.0714297969288 5.496521809767046,9.989797143867577 5.414889156705826,9.908164490806353 5.3332565036445985,9.744899184683906 5.251623850583371,9.663266531622678 5.169991197522151,9.581633878561455 5.088358544460924,9.500001225500231 5.006725891399697,9.418368572439007 5.006725891399697,9.418368572439007 4.843460585277249,9.33673591937778 4.761827932216029,9.173470613255333 4.680195279154802,9.091837960194109 4.680195279154802,9.010205307132882 4.516929973032354,9.010205307132882 4.353664666909907,8.928572654071658 4.27203201384868,8.76530734794921 4.190399360787453,8.683674694887987 4.108766707726232,8.683674694887987 4.027134054665005,8.60204204182676 3.945501401603785,8.60204204182676 3.945501401603785,8.520409388765536 3.863868748542558,8.438776735704312 3.863868748542558,8.357144082643089 3.7822360954813306,8.275511429581861 3.7822360954813306,8.193878776520638 3.7006034424201104,8.112246123459414 3.537338136297656,8.03061347039819 3.455705483236436,7.948980817336967 3.455705483236436,7.86734816427574 3.3740728301752085,7.785715511214516 3.3740728301752085,7.704082858153292 3.292440177113988,7.704082858153292 3.210807524052761,7.622450205092069 3.210807524052761,7.540817552030841 3.129174870991534,7.540817552030841 3.129174870991534,7.4591848989696174 3.129174870991534,7.377552245908395 3.0475422179303133,7.377552245908395 3.0475422179303133,7.29591959284717 3.0475422179303133,7.214286939785946 2.9659095648690865,7.214286939785946 2.9659095648690865,7.214286939785946 2.8842769118078664,7.13265428672472 2.8842769118078664,7.051021633663495 2.8026442587466387,6.969388980602272 2.8026442587466387,6.969388980602272 2.721011605685412,6.969388980602272 2.6393789526241918,6.887756327541048 2.5577462995629645,6.887756327541048 2.5577462995629645,6.724491021418597 2.4761136465017373,6.724491021418597 2.4761136465017373,6.642858368357373 2.394480993440517,6.642858368357373 2.394480993440517,6.56122571529615 2.31284834037929,6.479593062234926 2.2312156873180697,6.479593062234926 2.2312156873180697,6.397960409173699 2.2312156873180697,6.316327756112475 2.1495830342568425,6.316327756112475 2.1495830342568425,6.234695103051251 2.1495830342568425,6.234695103051251 2.1495830342568425,6.153062449990028 2.0679503811956153,6.153062449990028 2.0679503811956153,6.153062449990028 2.0679503811956153,6.0714297969288005 2.0679503811956153,5.989797143867577 1.986317728134395,5.989797143867577 1.986317728134395,5.908164490806353 1.986317728134395,5.744899184683906 1.986317728134395,5.581633878561455 1.986317728134395,5.418368572439007 1.986317728134395,5.33673591937778 1.9046850750731676,5.33673591937778 1.9046850750731676,5.091837960194109 1.9046850750731676,5.010205307132885 1.9046850750731676,4.846940001010434 1.9046850750731676,4.683674694887987 1.9046850750731676,4.60204204182676 1.9046850750731676,4.520409388765536 1.9046850750731676,4.520409388765536 1.9046850750731676,4.438776735704312 1.9046850750731676,4.357144082643089 1.9046850750731676,4.275511429581865 1.9046850750731676,4.193878776520638 1.9046850750731676,4.112246123459414 1.9046850750731676,4.03061347039819 1.9046850750731676,3.9489808173369667 1.9046850750731676,3.8673481642757395 1.9046850750731676,3.7857155112145158 1.9046850750731676,3.704082858153292 1.986317728134395,3.6224502050920684 1.986317728134395,3.4591848989696174 1.986317728134395,3.3775522459083938 2.1495830342568425,3.2142869397859464 2.1495830342568425,3.132654286724719 2.1495830342568425,3.051021633663495 2.2312156873180697,2.887756327541048 2.31284834037929,2.887756327541048 2.394480993440517,2.724491021418597 2.4761136465017373,2.724491021418597 2.5577462995629645,2.6428583683573734 2.5577462995629645,2.5612257152961497 2.721011605685412,2.5612257152961497 2.8026442587466387,2.397960409173699 2.8842769118078664,2.397960409173699 2.9659095648690865,2.397960409173699 2.9659095648690865,2.397960409173699 3.0475422179303133,2.397960409173699 3.129174870991534,2.397960409173699 3.292440177113988,2.397960409173699 3.3740728301752085,2.397960409173699 3.455705483236436,2.397960409173699 3.537338136297656,2.397960409173699 3.7006034424201104,2.397960409173699 3.7822360954813306,2.479593062234926 3.863868748542558,2.479593062234926 3.863868748542558,2.479593062234926 3.945501401603785,2.479593062234926 4.027134054665005,2.5612257152961497 4.108766707726232,2.5612257152961497 4.190399360787453,2.5612257152961497 4.190399360787453,2.6428583683573734 4.27203201384868,2.6428583683573734 4.353664666909907,2.6428583683573734 4.435297319971127,2.6428583683573734 4.516929973032354,2.6428583683573734 4.598562626093575,2.6428583683573734 4.680195279154802,2.6428583683573734 4.680195279154802,2.724491021418597 4.680195279154802,2.724491021418597 4.761827932216029,2.724491021418597 4.761827932216029,2.8061236744798244 4.843460585277249,2.8061236744798244 4.9250932383384765,2.8061236744798244 5.006725891399697,2.8061236744798244 5.088358544460924,2.8061236744798244 5.169991197522151,2.8061236744798244 5.251623850583371,2.8061236744798244 5.3332565036445985,2.8061236744798244 5.659787115889493,2.887756327541048 5.986317728134395,2.887756327541048 6.31284834037929,2.887756327541048 6.476113646501737,2.887756327541048 6.639378952624192,2.9693889806022717 6.721011605685412,2.9693889806022717 6.802644258746639,2.9693889806022717 6.802644258746639,3.051021633663495 6.9659095648690865,3.132654286724719 7.047542217930314,3.132654286724719 7.129174870991533,3.2142869397859464 7.129174870991533,3.2142869397859464 7.129174870991533,3.2959195928471696 7.210807524052761,3.3775522459083938 7.292440177113988,3.3775522459083938 7.292440177113988,3.4591848989696174 7.374072830175209,3.5408175520308443 7.455705483236436,3.5408175520308443 7.455705483236436,3.6224502050920684 7.455705483236436,3.704082858153292 7.455705483236436,3.704082858153292 7.455705483236436,3.7857155112145158 7.537338136297656,3.7857155112145158 7.537338136297656,3.8673481642757395 7.618970789358882,3.8673481642757395 7.618970789358882,3.9489808173369667 7.618970789358882,4.03061347039819 7.70060344242011,4.03061347039819 7.7822360954813306,4.03061347039819 7.7822360954813306,4.112246123459414 7.863868748542559,4.112246123459414 7.945501401603778,4.112246123459414 7.945501401603778,4.112246123459414 8.027134054665005,4.112246123459414 8.108766707726232,4.112246123459414 8.190399360787453,4.112246123459414 8.27203201384868,3.9489808173369667 8.353664666909907,3.8673481642757395 8.435297319971127,3.704082858153292 8.516929973032354,3.704082858153292 8.598562626093575,3.6224502050920684 8.680195279154802,3.5408175520308443 8.761827932216029,3.4591848989696174 8.761827932216029,3.3775522459083938 8.84346058527725,3.2959195928471696 8.84346058527725,3.2142869397859464 8.925093238338476,3.2142869397859464 8.925093238338476,3.132654286724719 9.006725891399697,3.051021633663495 9.006725891399697,2.9693889806022717 9.088358544460924,2.9693889806022717 9.088358544460924,2.887756327541048 9.169991197522151,2.887756327541048 9.169991197522151,2.887756327541048 9.169991197522151,2.8061236744798244 9.169991197522151,2.724491021418597 9.251623850583371,2.724491021418597 9.251623850583371,2.6428583683573734 9.251623850583371,2.5612257152961497 9.333256503644598,2.5612257152961497 9.333256503644598,2.479593062234926 9.333256503644598,2.397960409173699 9.496521809767046,2.397960409173699 9.496521809767046,2.316327756112475 9.578154462828273,2.316327756112475 9.578154462828273,2.2346951030512514 9.74141976895072,2.1530624499900277 9.823052422011948,2.071429796928804 9.904685075073168,2.071429796928804 9.986317728134395,2.071429796928804 9.986317728134395,2.071429796928804 10.067950381195615,2.071429796928804 10.149583034256842,2.071429796928804 10.23121568731807,2.071429796928804 10.31284834037929,2.071429796928804 10.394480993440517,2.071429796928804 10.476113646501737,2.1530624499900277 10.639378952624192,2.2346951030512514 10.72101160568541,2.2346951030512514 10.88427691180786,2.316327756112475 11.047542217930314,2.479593062234926 11.129174870991534,2.479593062234926 11.129174870991534,2.5612257152961497 11.21080752405276,2.5612257152961497 11.292440177113988,2.6428583683573734 11.374072830175209,2.6428583683573734 11.455705483236436,2.6428583683573734 11.618970789358883,2.8061236744798244 11.700603442420109,2.8061236744798244 11.782236095481332,2.887756327541048 11.945501401603778,2.887756327541048 12.027134054665005,2.887756327541048 12.027134054665005,2.887756327541048 12.108766707726232,2.887756327541048 12.190399360787453,2.887756327541048 12.272032013848682,2.9693889806022717 12.3536646669099,2.9693889806022717 12.3536646669099,3.051021633663495 12.435297319971127,3.051021633663495 12.516929973032354,3.132654286724719 12.598562626093575,3.132654286724719 12.680195279154802,3.2142869397859464 12.76182793221603,3.2959195928471696 12.84346058527725,3.3775522459083938 12.84346058527725,3.4591848989696174 12.925093238338476,3.5408175520308443 13.006725891399697,3.6224502050920684 13.088358544460924,3.704082858153292 13.169991197522151,3.704082858153292 13.251623850583373,3.704082858153292 13.251623850583373,3.8673481642757395 13.251623850583373,3.9489808173369667 13.333256503644598,4.03061347039819 13.333256503644598,4.112246123459414 13.333256503644598,4.193878776520638 13.333256503644598,4.275511429581865 13.333256503644598,4.438776735704312 13.333256503644598,4.520409388765536 13.333256503644598,4.520409388765536 13.333256503644598,4.60204204182676 13.333256503644598,4.683674694887987 13.251623850583373,4.765307347949211 13.251623850583373,4.928572654071658 13.251623850583373,5.010205307132885 13.169991197522151,5.010205307132885 13.169991197522151,5.091837960194109 13.169991197522151,5.255103266316556 13.088358544460924,5.33673591937778 13.006725891399697,5.33673591937778 13.006725891399697,5.418368572439007 13.006725891399697,5.500001225500231 12.925093238338476,5.581633878561455 12.925093238338476,5.6632665316226785 12.84346058527725,5.6632665316226785 12.84346058527725,5.581633878561455 12.76182793221603,5.500001225500231 12.76182793221603,5.33673591937778 12.680195279154802,5.33673591937778 12.598562626093575,5.091837960194109 12.516929973032354,5.010205307132885 12.435297319971127,4.846940001010434 12.3536646669099,4.846940001010434 12.3536646669099,4.765307347949211 12.272032013848682,4.765307347949211 12.108766707726232,4.683674694887987 12.027134054665005,4.60204204182676 11.863868748542558,4.520409388765536 11.537338136297656,4.357144082643089 11.292440177113988,4.193878776520638 11.129174870991534,4.112246123459414 10.965909564869087,3.8673481642757395 10.80264425874664,3.7857155112145158 10.557746299562965,3.704082858153292 10.394480993440517,3.5408175520308443 10.31284834037929,3.4591848989696174 10.23121568731807,3.2959195928471696 10.067950381195615,3.2142869397859464 9.904685075073168,3.132654286724719 9.823052422011948,3.051021633663495 9.578154462828273,2.9693889806022717 9.414889156705819,2.887756327541048 9.251623850583371,2.887756327541048 9.006725891399697,2.887756327541048 8.925093238338476,2.887756327541048 8.761827932216029,2.887756327541048 8.598562626093575,2.8061236744798244 8.516929973032354,2.8061236744798244 8.435297319971127,2.8061236744798244 8.353664666909907,2.8061236744798244 8.27203201384868,2.8061236744798244 8.353664666909907,2.8061236744798244 8.516929973032354,2.887756327541048 8.761827932216029,2.887756327541048 9.006725891399697,2.887756327541048 9.496521809767046,2.9693889806022717 9.986317728134395,3.132654286724719 10.476113646501737,3.2959195928471696 11.21080752405276,3.4591848989696174 11.618970789358883,3.704082858153292 12.027134054665005,3.7857155112145158 12.272032013848682,3.8673481642757395 12.435297319971127,3.9489808173369667 12.516929973032354,4.03061347039819 12.598562626093575,4.03061347039819 12.680195279154802,4.112246123459414 12.76182793221603,4.193878776520638 12.84346058527725,4.357144082643089 12.84346058527725,4.438776735704312 12.84346058527725,4.520409388765536 12.84346058527725,4.683674694887987 12.84346058527725,4.765307347949211 12.84346058527725,4.928572654071658 12.925093238338476,5.010205307132885 12.925093238338476,5.091837960194109 13.006725891399697,5.255103266316556 13.006725891399697,5.33673591937778 13.006725891399697,5.33673591937778 13.006725891399697,5.418368572439007 13.006725891399697,5.500001225500231 13.088358544460924,5.581633878561455 13.088358544460924,5.6632665316226785 13.169991197522151,5.826531837745129 13.169991197522151,5.908164490806353 13.169991197522151,5.989797143867577 13.251623850583373,5.989797143867577 " style="color: rgb(0, 0, 0);"/></g></svg>