<svg xmlns="http://www.w3.org/2000/svg" width="16" height="14" fill="none" style=""><rect id="backgroundrect" width="100%" height="100%" x="0" y="0" fill="none" stroke="none"/>

<g class="currentLayer" style=""><title>Layer 1</title><path d="M8.00061 1.14671C9.76233 -0.435007 12.4848 -0.382508 14.182 1.31771C15.8785 3.01868 15.937 5.72763 14.359 7.49459L7.99911 13.8635L1.64073 7.49459C0.0627627 5.72763 0.122012 3.01418 1.81773 1.31771C3.51645 -0.380258 6.23365 -0.437257 8.00061 1.14671ZM13.12 2.37744C11.995 1.25096 10.1801 1.20521 9.00259 2.26269L8.00136 3.16118L6.99938 2.26344C5.81816 1.20446 4.00694 1.25096 2.87896 2.37894C1.76148 3.49642 1.70523 5.28514 2.73496 6.46711L7.99986 11.7403L13.2648 6.46786C14.2952 5.28514 14.239 3.49867 13.12 2.37744Z" fill="#E0BEA2" id="svg_1"/><polyline fill="none" stroke="#e0bea2" stroke-width="2" stroke-linejoin="round" stroke-dashoffset="" fill-rule="nonzero" marker-start="" marker-mid="" marker-end="" id="svg_2" points="1.959183201497915,2.959183396429431 2.040815854559135,2.959183396429431 2.122448507620362,2.959183396429431 2.2040811606815893,2.8775507433682073 2.2857138137428095,2.7142854372457563 2.530611772926484,2.6326527841845326 2.7755097321101587,2.551020131123309 2.9387750382326066,2.387754825000858 3.183672997416281,2.3061221719396343 3.428570956599956,2.2244895188784106 3.6734689157836304,2.0612242127559597 3.918366874967305,1.979591559694736 4.163264834150972,1.979591559694736 4.326530140273427,1.897958906633512 4.571428099457094,1.8163262535722886 4.734693405579549,1.7346936005110614 4.897958711701996,1.7346936005110614 5.142856670885671,1.7346936005110614 5.387754630069345,1.6530609474498374 5.551019936191793,1.6530609474498374 5.795917895375467,1.6530609474498374 6.040815854559135,1.6530609474498374 6.204081160681589,1.6530609474498374 6.2857138137428095,1.6530609474498374 6.204081160681589,1.6530609474498374 6.204081160681589,1.6530609474498374 6.040815854559135,1.7346936005110614 5.71428524231424,1.8163262535722886 5.469387283130565,1.897958906633512 5.142856670885671,1.897958906633512 4.734693405579549,2.0612242127559597 4.489795446395874,2.2244895188784106 4.244897487212199,2.3061221719396343 3.918366874967305,2.551020131123309 3.8367342219060774,2.6326527841845326 3.5918362627224028,2.79591809030698 3.428570956599956,2.959183396429431 3.346938303538728,3.1224487025518783 3.183672997416281,3.2857140086743293 3.1020403443550535,3.4489793147967767 3.0204076912938334,3.6122446209192276 2.9387750382326066,3.6938772739804513 2.9387750382326066,3.8571425801028987 2.857142385171386,4.02040788622535 2.7755097321101587,4.102040539286573 2.693877079048932,4.183673192347797 2.6122444259877113,4.265305845409021 2.6122444259877113,4.346938498470248 2.6122444259877113,4.428571151531472 2.530611772926484,4.510203804592695 2.448979119865264,4.510203804592695 2.3673464668040367,4.591836457653919 2.2857138137428095,4.591836457653919 2.2857138137428095,4.673469110715143 2.2857138137428095,4.673469110715143 2.2040811606815893,4.75510176377637 2.2040811606815893,4.836734416837594 2.122448507620362,4.836734416837594 2.122448507620362,4.918367069898817 2.122448507620362,4.918367069898817 2.122448507620362,4.999999722960041 2.122448507620362,5.081632376021268 2.122448507620362,5.163265029082492 2.122448507620362,5.244897682143715 2.2040811606815893,5.326530335204939 2.2040811606815893,5.408162988266163 2.2040811606815893,5.571428294388614 2.2857138137428095,5.571428294388614 2.2857138137428095,5.653060947449838 2.2857138137428095,5.816326253572289 2.3673464668040367,5.816326253572289 2.448979119865264,5.816326253572289 2.530611772926484,5.816326253572289 2.6122444259877113,5.816326253572289 2.6122444259877113,5.7346936005110605 2.857142385171386,5.571428294388614 2.9387750382326066,5.244897682143715 3.265305650477508,4.999999722960041 3.5102036096611755,4.836734416837594 3.75510156884485,4.591836457653919 3.9999995280285248,4.265305845409021 4.326530140273427,4.02040788622535 4.571428099457094,3.8571425801028987 4.897958711701996,3.6122446209192276 5.224489323946891,3.5306119678580004 5.551019936191793,3.367346661735553 5.71428524231424,3.2857140086743293 5.959183201497915,3.204081355613102 6.040815854559135,3.1224487025518783 6.204081160681589,3.0408160494906546 6.367346466804038,2.959183396429431 6.530611772926484,2.959183396429431 6.6938770790489315,2.8775507433682073 6.857142385171387,2.8775507433682073 7.1020403443550535,2.7142854372457563 7.265305650477508,2.7142854372457563 7.428570956599955,2.7142854372457563 7.591836262722403,2.6326527841845326 7.836734221906077,2.6326527841845326 7.999999528028525,2.6326527841845326 8.163264834150972,2.6326527841845326 8.326530140273427,2.6326527841845326 8.489795446395874,2.6326527841845326 8.571428099457094,2.6326527841845326 8.734693405579549,2.6326527841845326 8.897958711701996,2.6326527841845326 8.979591364763216,2.6326527841845326 9.061224017824443,2.551020131123309 9.14285667088567,2.551020131123309 9.22448932394689,2.551020131123309 9.469387283130565,2.4693874780620817 9.469387283130565,2.4693874780620817 9.632652589253013,2.387754825000858 9.71428524231424,2.387754825000858 9.632652589253013,2.387754825000858 9.469387283130565,2.551020131123309 9.22448932394689,2.6326527841845326 8.897958711701996,2.79591809030698 8.408162793334647,3.0408160494906546 7.836734221906077,3.2857140086743293 7.346938303538728,3.4489793147967767 6.775509732110159,3.775509927041675 6.367346466804038,3.938775233164122 5.959183201497915,4.183673192347797 5.632652589253012,4.346938498470248 5.387754630069345,4.510203804592695 5.224489323946891,4.591836457653919 5.224489323946891,4.75510176377637 5.142856670885671,4.918367069898817 4.979591364763216,4.999999722960041 4.897958711701996,5.163265029082492 4.816326058640769,5.244897682143715 4.653060752518321,5.408162988266163 4.571428099457094,5.571428294388614 4.489795446395874,5.571428294388614 4.326530140273427,5.816326253572289 4.244897487212199,5.897958906633512 4.163264834150972,5.979591559694735 3.9999995280285248,6.142856865817183 3.918366874967305,6.22448951887841 3.8367342219060774,6.306122171939634 3.6734689157836304,6.469387478062082 3.5918362627224028,6.551020131123309 3.5918362627224028,6.632652784184533 3.5102036096611755,6.632652784184533 3.5102036096611755,6.79591809030698 3.428570956599956,6.79591809030698 3.428570956599956,6.877550743368204 3.346938303538728,6.877550743368204 3.346938303538728,7.040816049490655 3.265305650477508,7.040816049490655 3.265305650477508,7.122448702551878 3.265305650477508,7.204081355613102 3.265305650477508,7.204081355613102 3.265305650477508,7.285714008674329 3.346938303538728,7.285714008674329 3.428570956599956,7.285714008674329 3.5918362627224028,7.204081355613102 3.918366874967305,7.040816049490655 4.244897487212199,6.877550743368204 4.489795446395874,6.632652784184533 4.897958711701996,6.551020131123309 5.306121977008118,6.387754825000858 5.632652589253012,6.22448951887841 5.877550548436688,6.142856865817183 6.204081160681589,5.979591559694735 6.367346466804038,5.897958906633512 6.530611772926484,5.897958906633512 6.6122444259877104,5.897958906633512 6.6938770790489315,5.897958906633512 6.6122444259877104,5.897958906633512 6.204081160681589,6.22448951887841 6.204081160681589,6.306122171939634 5.877550548436688,6.551020131123309 5.632652589253012,6.79591809030698 5.306121977008118,7.040816049490655 5.061224017824443,7.204081355613102 4.897958711701996,7.448979314796777 4.734693405579549,7.530611967858 4.571428099457094,7.693877273980451 4.571428099457094,7.775509927041675 4.571428099457094,7.857142580102899 4.489795446395874,7.857142580102899 4.408162793334647,7.938775233164122 4.408162793334647,8.02040788622535 4.408162793334647,8.102040539286573 4.326530140273427,8.102040539286573 4.326530140273427,8.183673192347797 4.326530140273427,8.183673192347797 4.326530140273427,8.26530584540902 4.326530140273427,8.346938498470244 4.408162793334647,8.346938498470244 4.489795446395874,8.346938498470244 4.571428099457094,8.346938498470244 4.897958711701996,8.346938498470244 5.142856670885671,8.183673192347797 5.469387283130565,8.183673192347797 5.877550548436688,8.102040539286573 6.204081160681589,8.02040788622535 6.367346466804038,7.938775233164122 6.448979119865257,7.938775233164122 6.448979119865257,8.02040788622535 6.448979119865257,8.102040539286573 6.448979119865257,8.183673192347797 6.204081160681589,8.346938498470244 6.122448507620361,8.591836457653919 5.877550548436688,8.836734416837594 5.71428524231424,8.999999722960041 5.551019936191793,9.163265029082492 5.551019936191793,9.244897682143716 5.551019936191793,9.32653033520494 5.551019936191793,9.32653033520494 5.632652589253012,9.32653033520494 5.71428524231424,9.32653033520494 5.877550548436688,9.32653033520494 6.204081160681589,9.244897682143716 6.448979119865257,9.163265029082492 6.6122444259877104,9.163265029082492 6.857142385171387,9.081632376021265 6.938775038232606,9.081632376021265 7.020407691293833,9.081632376021265 7.020407691293833,9.163265029082492 6.857142385171387,9.244897682143716 6.775509732110159,9.408162988266163 6.6122444259877104,9.653060947449838 6.530611772926484,9.816326253572285 6.448979119865257,9.897958906633512 6.448979119865257,9.979591559694736 6.530611772926484,9.979591559694736 6.6122444259877104,9.979591559694736 6.857142385171387,9.979591559694736 7.183672997416281,9.979591559694736 7.5102036096611755,9.897958906633512 7.836734221906077,9.816326253572285 7.9183668749672975,9.816326253572285 7.999999528028525,9.816326253572285 7.999999528028525,9.897958906633512 7.999999528028525,9.979591559694736 7.999999528028525,10.06122421275596 7.836734221906077,10.22448951887841 7.75510156884485,10.469387478062082 7.67346891578363,10.551020131123305 7.591836262722403,10.714285437245756 7.591836262722403,10.79591809030698 7.67346891578363,10.79591809030698 7.75510156884485,10.79591809030698 7.836734221906077,10.79591809030698 7.9183668749672975,10.79591809030698 8.081632181089752,10.79591809030698 8.2448974872122,10.714285437245756 8.2448974872122,10.551020131123305 8.2448974872122,10.632652784184534 8.163264834150972,10.714285437245756 8.081632181089752,10.79591809030698 7.999999528028525,10.877550743368202 7.836734221906077,11.040816049490655 7.75510156884485,11.122448702551878 7.591836262722403,11.204081355613102 7.591836262722403,11.285714008674326 7.67346891578363,11.285714008674326 7.75510156884485,11.285714008674326 7.836734221906077,11.204081355613102 7.999999528028525,11.122448702551878 8.163264834150972,10.959183396429431 8.2448974872122,10.79591809030698 8.408162793334647,10.714285437245756 8.489795446395874,10.551020131123305 8.571428099457094,10.469387478062082 8.653060752518321,10.387754825000858 8.734693405579549,10.22448951887841 8.816326058640769,10.142856865817183 8.897958711701996,10.06122421275596 8.979591364763216,9.979591559694736 9.061224017824443,9.897958906633512 9.14285667088567,9.816326253572285 9.14285667088567,9.734693600511061 9.22448932394689,9.653060947449838 9.306121977008118,9.48979564132739 9.387754630069338,9.48979564132739 9.551019936191793,9.32653033520494 9.632652589253013,9.163265029082492 9.71428524231424,9.163265029082492 9.795917895375467,9.081632376021265 9.877550548436687,8.836734416837594 9.959183201497915,8.836734416837594 10.122448507620362,8.673469110715143 10.122448507620362,8.591836457653919 10.20408116068159,8.510203804592695 10.367346466804037,8.428571151531472 10.448979119865257,8.26530584540902 10.530611772926484,8.183673192347797 10.693877079048931,8.102040539286573 10.77550973211016,8.102040539286573 10.77550973211016,8.02040788622535 10.938775038232606,7.938775233164122 11.020407691293833,7.857142580102899 11.102040344355053,7.775509927041675 11.102040344355053,7.775509927041675 11.26530565047751,7.612244620919224 11.428570956599955,7.530611967858 11.428570956599955,7.530611967858 11.591836262722403,7.367346661735553 11.755101568844848,7.285714008674329 11.755101568844848,7.204081355613102 11.755101568844848,7.204081355613102 11.918366874967298,7.040816049490655 11.999999528028525,7.040816049490655 12.081632181089752,6.959183396429431 12.081632181089752,6.877550743368204 12.081632181089752,6.79591809030698 12.244897487212201,6.632652784184533 12.326530140273427,6.551020131123309 12.408162793334647,6.551020131123309 12.408162793334647,6.387754825000858 12.489795446395874,6.306122171939634 12.571428099457094,6.22448951887841 12.653060752518321,6.22448951887841 12.653060752518321,6.142856865817183 12.734693405579547,6.06122421275596 12.734693405579547,5.979591559694735 12.816326058640769,5.897958906633512 12.816326058640769,5.897958906633512 12.897958711701996,5.897958906633512 12.897958711701996,5.816326253572289 12.897958711701996,5.7346936005110605 13.061224017824443,5.7346936005110605 13.061224017824443,5.653060947449838 13.061224017824443,5.571428294388614 13.14285667088567,5.571428294388614 13.14285667088567,5.489795641327391 13.224489323946889,5.489795641327391 13.306121977008118,5.408162988266163 13.387754630069338,5.408162988266163 13.387754630069338,5.326530335204939 13.387754630069338,5.244897682143715 13.387754630069338,5.244897682143715 13.469387283130565,5.163265029082492 13.469387283130565,5.081632376021268 13.551019936191793,5.081632376021268 13.551019936191793,4.999999722960041 13.632652589253013,4.999999722960041 13.632652589253013,4.918367069898817 13.632652589253013,4.918367069898817 13.632652589253013,4.836734416837594 13.632652589253013,4.75510176377637 13.632652589253013,4.673469110715143 13.632652589253013,4.591836457653919 13.632652589253013,4.591836457653919 13.714285242314238,4.510203804592695 13.714285242314238,4.346938498470248 13.714285242314238,4.265305845409021 13.714285242314238,4.265305845409021 13.714285242314238,4.183673192347797 13.714285242314238,4.102040539286573 13.714285242314238,4.02040788622535 13.714285242314238,3.938775233164122 13.714285242314238,3.938775233164122 13.714285242314238,3.8571425801028987 13.714285242314238,3.775509927041675 13.714285242314238,3.6938772739804513 13.714285242314238,3.6122446209192276 13.714285242314238,3.6122446209192276 13.714285242314238,3.5306119678580004 13.714285242314238,3.4489793147967767 13.714285242314238,3.367346661735553 13.632652589253013,3.2857140086743293 13.632652589253013,3.2857140086743293 13.632652589253013,3.204081355613102 13.551019936191793,3.0408160494906546 13.469387283130565,3.0408160494906546 13.469387283130565,2.959183396429431 13.387754630069338,2.959183396429431 13.387754630069338,2.8775507433682073 13.387754630069338,2.8775507433682073 13.387754630069338,2.7142854372457563 13.387754630069338,2.6326527841845326 13.306121977008118,2.6326527841845326 13.224489323946889,2.6326527841845326 13.224489323946889,2.6326527841845326 13.14285667088567,2.6326527841845326 13.14285667088567,2.551020131123309 13.061224017824443,2.551020131123309 13.061224017824443,2.4693874780620817 13.061224017824443,2.4693874780620817 12.979591364763216,2.4693874780620817 12.979591364763216,2.387754825000858 12.897958711701996,2.387754825000858 12.816326058640769,2.387754825000858 12.816326058640769,2.3061221719396343 12.734693405579547,2.3061221719396343 12.653060752518321,2.3061221719396343 12.571428099457094,2.3061221719396343 12.489795446395874,2.3061221719396343 12.408162793334647,2.2244895188784106 12.408162793334647,2.2244895188784106 12.326530140273427,2.2244895188784106 12.244897487212201,2.2244895188784106 12.163264834150972,2.142856865817187 12.081632181089752,2.142856865817187 11.999999528028525,2.142856865817187 11.999999528028525,2.0612242127559597 11.918366874967298,2.0612242127559597 11.836734221906077,2.0612242127559597 11.755101568844848,2.0612242127559597 11.755101568844848,1.979591559694736 11.755101568844848,1.979591559694736 11.67346891578363,1.979591559694736 11.591836262722403,1.979591559694736 11.510203609661176,1.979591559694736 11.510203609661176,1.897958906633512 11.428570956599955,1.8163262535722886 11.346938303538728,1.8163262535722886 11.26530565047751,1.7346936005110614 11.18367299741628,1.6530609474498374 11.102040344355053,1.6530609474498374 11.102040344355053,1.6530609474498374 11.020407691293833,1.6530609474498374 10.938775038232606,1.6530609474498374 10.857142385171386,1.6530609474498374 10.77550973211016,1.7346936005110614 10.693877079048931,1.7346936005110614 10.530611772926484,1.8163262535722886 10.448979119865257,1.897958906633512 10.20408116068159,1.897958906633512 10.122448507620362,1.979591559694736 9.959183201497915,1.979591559694736 9.877550548436687,1.979591559694736 9.795917895375467,1.979591559694736 9.795917895375467,1.979591559694736 9.795917895375467,2.0612242127559597 9.71428524231424,2.0612242127559597 9.632652589253013,2.142856865817187 9.469387283130565,2.3061221719396343 9.469387283130565,2.3061221719396343 9.306121977008118,2.387754825000858 9.14285667088567,2.6326527841845326 9.14285667088567,2.79591809030698 8.979591364763216,2.959183396429431 8.816326058640769,3.1224487025518783 8.816326058640769,3.2857140086743293 8.571428099457094,3.4489793147967767 8.489795446395874,3.6122446209192276 8.408162793334647,3.775509927041675 8.2448974872122,3.938775233164122 8.163264834150972,4.102040539286573 8.081632181089752,4.265305845409021 7.999999528028525,4.265305845409021 7.836734221906077,4.428571151531472 7.75510156884485,4.591836457653919 7.591836262722403,4.673469110715143 7.5102036096611755,4.75510176377637 7.428570956599955,4.918367069898817 7.183672997416281,5.081632376021268 7.020407691293833,5.244897682143715 6.857142385171387,5.408162988266163 6.775509732110159,5.571428294388614 6.530611772926484,5.816326253572289 6.448979119865257,5.897958906633512 6.367346466804038,6.06122421275596 6.2857138137428095,6.142856865817183 6.2857138137428095,6.22448951887841 6.367346466804038,6.22448951887841 6.448979119865257,6.142856865817183 6.6938770790489315,5.897958906633512 6.938775038232606,5.571428294388614 7.591836262722403,5.244897682143715 8.163264834150972,4.836734416837594 8.816326058640769,4.510203804592695 9.469387283130565,4.102040539286573 9.795917895375467,3.8571425801028987 10.122448507620362,3.6122446209192276 10.448979119865257,3.5306119678580004 10.530611772926484,3.367346661735553 10.693877079048931,3.2857140086743293 10.77550973211016,3.2857140086743293 10.857142385171386,3.2857140086743293 10.857142385171386,3.1224487025518783 11.020407691293833,3.1224487025518783 11.020407691293833,3.0408160494906546 11.102040344355053,2.959183396429431 11.102040344355053,2.959183396429431 11.18367299741628,2.8775507433682073 11.26530565047751,2.8775507433682073 11.26530565047751,2.79591809030698 11.26530565047751,2.8775507433682073 11.346938303538728,2.959183396429431 11.428570956599955,2.959183396429431 11.510203609661176,2.959183396429431 11.67346891578363,2.959183396429431 11.755101568844848,3.0408160494906546 11.918366874967298,3.0408160494906546 12.081632181089752,3.1224487025518783 12.163264834150972,3.204081355613102 12.244897487212201,3.204081355613102 12.408162793334647,3.2857140086743293 12.408162793334647,3.2857140086743293 12.408162793334647,3.367346661735553 12.408162793334647,3.5306119678580004 12.408162793334647,3.6122446209192276 12.408162793334647,3.775509927041675 12.408162793334647,3.938775233164122 12.408162793334647,4.02040788622535 12.408162793334647,4.183673192347797 12.326530140273427,4.265305845409021 12.163264834150972,4.428571151531472 12.081632181089752,4.591836457653919 11.999999528028525,4.673469110715143 11.918366874967298,4.836734416837594 11.755101568844848,4.918367069898817 11.755101568844848,5.081632376021268 11.67346891578363,5.163265029082492 11.510203609661176,5.244897682143715 11.428570956599955,5.326530335204939 11.346938303538728,5.408162988266163 11.102040344355053,5.489795641327391 10.938775038232606,5.571428294388614 10.77550973211016,5.7346936005110605 10.612244425987711,5.897958906633512 10.448979119865257,5.897958906633512 10.28571381374281,6.06122421275596 10.122448507620362,6.22448951887841 9.877550548436687,6.306122171939634 9.71428524231424,6.551020131123309 9.469387283130565,6.551020131123309 9.387754630069338,6.79591809030698 9.22448932394689,6.877550743368204 9.14285667088567,7.040816049490655 8.979591364763216,7.122448702551878 8.897958711701996,7.285714008674329 8.734693405579549,7.367346661735553 8.653060752518321,7.530611967858 8.489795446395874,7.612244620919224 8.489795446395874,7.775509927041675 8.408162793334647,7.857142580102899 8.2448974872122,7.938775233164122 8.2448974872122,8.102040539286573 8.163264834150972,8.183673192347797 8.163264834150972,8.183673192347797 8.081632181089752,8.26530584540902 7.999999528028525,8.428571151531472 7.9183668749672975,8.510203804592695 7.9183668749672975,8.591836457653919 7.836734221906077,8.673469110715143 7.836734221906077,8.75510176377637 7.836734221906077,8.75510176377637 7.836734221906077,8.836734416837594 7.836734221906077,8.836734416837594 7.75510156884485,8.836734416837594 7.67346891578363,8.836734416837594 7.67346891578363,8.75510176377637 7.591836262722403,8.673469110715143 7.5102036096611755,8.428571151531472 7.5102036096611755,8.183673192347797 7.5102036096611755,7.857142580102899 7.5102036096611755,7.612244620919224 7.5102036096611755,7.285714008674329 7.5102036096611755,7.122448702551878 7.5102036096611755,6.877550743368204 7.5102036096611755,6.632652784184533 7.67346891578363,6.551020131123309 7.836734221906077,6.306122171939634 7.9183668749672975,6.22448951887841 8.163264834150972,6.06122421275596 8.326530140273427,5.897958906633512 8.489795446395874,5.816326253572289 8.653060752518321,5.653060947449838 8.897958711701996,5.489795641327391 9.14285667088567,5.326530335204939 9.387754630069338,5.244897682143715 9.551019936191793,5.163265029082492 9.71428524231424,4.999999722960041 9.795917895375467,4.999999722960041 10.040815854559135,4.918367069898817 10.122448507620362,4.75510176377637 10.122448507620362,4.673469110715143 10.20408116068159,4.591836457653919 10.28571381374281,4.591836457653919 10.28571381374281,4.510203804592695 10.367346466804037,4.428571151531472 10.367346466804037,4.346938498470248 10.448979119865257,4.346938498470248 10.448979119865257,4.265305845409021 10.448979119865257,4.265305845409021 " style="color: rgb(224, 190, 162);"/></g></svg>